<svg xmlns="http://www.w3.org/2000/svg" width="86.4" height="84.24" viewBox="0 0 86.4 84.24">
  <g id="Job_AI" transform="translate(-864.961 -2066.399)">
    <path id="Icon_simple-adobeillustrator" data-name="Icon simple-adobeillustrator" d="M0,.45V84.69H86.4V.45Zm3.6,3.6H82.8V81.09H3.6Zm26.37,44.1L27.119,58.943c-.061.3-.18.367-.533.367H21.3c-.36,0-.414-.119-.36-.533l10.224-35.8a11.105,11.105,0,0,0,.353-3c0-.238.119-.36.3-.36h7.546c.238,0,.36.065.418.36L51.246,58.835c.061.3,0,.475-.3.475h-5.94c-.3,0-.475-.072-.533-.31L41.5,48.146H29.959ZM40.007,42.3C39,38.318,36.623,29.6,35.73,25.38h-.061C34.9,29.592,33,36.72,31.511,42.3Zm16.2-20.009a3.683,3.683,0,0,1,7.366,0,3.449,3.449,0,0,1-3.744,3.683,3.384,3.384,0,0,1-3.636-3.683Zm.4,8.186c0-.288.119-.4.418-.4H62.68c.317,0,.432.119.432.418V58.921c0,.3-.058.418-.414.418h-5.58c-.36,0-.479-.18-.479-.468v-28.4Z" transform="translate(864.961 2065.949)"/>
  </g>
</svg>
