<svg xmlns="http://www.w3.org/2000/svg" width="703.44" height="84.24" viewBox="0 0 703.44 84.24">
<defs>
  <g id="JOB_Icons" transform="translate(-657.6 -2066.399)">
    <g id="Job_PS">
      <path id="Icon_simple-adobephotoshop" data-name="Icon simple-adobephotoshop" d="M0,.45V84.69H86.4V.45Zm3.6,3.6H82.8V81.09H3.6ZM20.88,20.178c0-.241.5-.418.806-.418,2.318-.119,5.717-.18,9.281-.18,9.979,0,13.86,5.472,13.86,12.478,0,9.144-6.631,13.068-14.767,13.068-1.368,0-1.836-.061-2.79-.061V58.9c0,.3-.119.418-.414.418H21.3c-.3,0-.414-.108-.414-.407V20.178ZM27.27,39.3c.828.058,1.483.058,2.916.058,4.212,0,8.172-1.483,8.172-7.186,0-4.572-2.83-6.89-7.639-6.89-1.426,0-2.79.058-3.445.119v13.91Zm30.985-4.277c-2.851,0-3.8,1.426-3.8,2.614,0,1.307.648,2.2,4.453,4.158C64.552,44.532,66.33,47.142,66.33,51c0,5.76-4.392,8.856-10.332,8.856a15.729,15.729,0,0,1-7.38-1.548c-.234-.119-.288-.3-.288-.594V52.434c0-.36.173-.479.41-.3a13.262,13.262,0,0,0,7.243,2.138c2.851,0,4.039-1.188,4.039-2.794,0-1.307-.828-2.437-4.453-4.338-5.112-2.448-7.25-4.932-7.25-9.1,0-4.633,3.622-8.5,9.918-8.5A16.78,16.78,0,0,1,64.7,30.553a.785.785,0,0,1,.36.713V36.2c0,.3-.18.479-.54.36a12.892,12.892,0,0,0-6.275-1.548Z" transform="translate(761.278 2065.949)"/>
    </g>
    <g id="Job_AI">
      <path id="Icon_simple-adobeillustrator" data-name="Icon simple-adobeillustrator" d="M0,.45V84.69H86.4V.45Zm3.6,3.6H82.8V81.09H3.6Zm26.37,44.1L27.119,58.943c-.061.3-.18.367-.533.367H21.3c-.36,0-.414-.119-.36-.533l10.224-35.8a11.105,11.105,0,0,0,.353-3c0-.238.119-.36.3-.36h7.546c.238,0,.36.065.418.36L51.246,58.835c.061.3,0,.475-.3.475h-5.94c-.3,0-.475-.072-.533-.31L41.5,48.146H29.959ZM40.007,42.3C39,38.318,36.623,29.6,35.73,25.38h-.061C34.9,29.592,33,36.72,31.511,42.3Zm16.2-20.009a3.683,3.683,0,0,1,7.366,0,3.449,3.449,0,0,1-3.744,3.683,3.384,3.384,0,0,1-3.636-3.683Zm.4,8.186c0-.288.119-.4.418-.4H62.68c.317,0,.432.119.432.418V58.921c0,.3-.058.418-.414.418h-5.58c-.36,0-.479-.18-.479-.468v-28.4Z" transform="translate(864.961 2065.949)"/>
    </g>
    <g id="Job_XD">
      <g id="Group_8" data-name="Group 8" transform="translate(657.6 2066.4)">
        <path id="Icon_simple-adobexd" data-name="Icon simple-adobexd" d="M24.755,27.921l10.08,19.368c.18.288.072.576-.216.576H28.355A.706.706,0,0,1,27.6,47.4c-2.3-4.752-4.644-9.5-7.056-14.616h-.072c-2.16,4.824-4.536,9.9-6.84,14.652a.691.691,0,0,1-.648.4H7.043c-.36,0-.4-.288-.216-.5l9.864-18.792L7.151,9.525a.291.291,0,0,1,.216-.5h6.192a.567.567,0,0,1,.648.4c2.268,4.752,4.572,9.648,6.732,14.436h.072C23.1,19.1,25.4,14.169,27.635,9.453c.18-.288.288-.468.648-.468h5.8c.288,0,.4.216.216.5ZM36.6,33.789c0-8.388,5.58-14.94,14.436-14.94a15.964,15.964,0,0,1,1.872.072V9.381a.361.361,0,0,1,.36-.36h5.688c.288,0,.36.108.36.288V42.357a25.642,25.642,0,0,0,.18,3.528c0,.216-.072.288-.288.4a21.444,21.444,0,0,1-9.216,2.088C42.179,48.4,36.6,43.581,36.6,33.789Zm16.308-9.216a5.444,5.444,0,0,0-2.088-.36c-4.536,0-7.7,3.492-7.7,9.288,0,6.624,3.24,9.288,7.308,9.288a6.792,6.792,0,0,0,2.484-.4V24.573Z" transform="translate(9.41 11.499)"/>
        <path id="Icon_simple-adobeillustrator-2" data-name="Icon simple-adobeillustrator" d="M0,.45V84.69H86.4V.45H0Zm3.6,3.6H82.8V81.09H3.6Z" transform="translate(0.001 -0.45)"/>
      </g>
    </g>
    <g id="Job_PR">
      <path id="Icon_simple-adobepremiere" data-name="Icon simple-adobepremiere" d="M0,.45V84.69H86.4V.45Zm3.6,3.6H82.8V81.09H3.6ZM22.669,20.171c0-.238.061-.418.36-.418,2.315-.119,5.7-.18,9.263-.18,9.979,0,14.317,5.468,14.317,12.478,0,9.144-6.62,13.068-14.756,13.068-1.368,0-1.843-.061-2.794-.061V58.892c0,.3-.119.418-.414.418H23.087c-.3,0-.418-.119-.418-.418ZM29.059,39.3c.832.058,1.487.058,2.912.058,4.216,0,8.161-1.483,8.161-7.186,0-4.572-2.815-6.89-7.628-6.89-1.426,0-2.79.058-3.445.119ZM52.1,36.029c0-.414,0-1.483-.176-3.5,0-.3.04-.36.277-.475a37.512,37.512,0,0,1,13.165-2.495c.3,0,.414.058.414.356V35.14c0,.3-.094.356-.392.356a20.61,20.61,0,0,0-6.8.713V58.892c0,.3-.122.418-.418.418H52.513c-.3,0-.414-.119-.414-.418Z" transform="translate(968.639 2065.949)"/>
    </g>
    <g id="Job_AE">
      <path id="Icon_simple-adobeaftereffects" data-name="Icon simple-adobeaftereffects" d="M0,.45V84.69H86.4V.45Zm3.6,3.6H82.8V81.09H3.6Zm20.822,44.1L21.571,58.9c-.061.3-.18.407-.533.407H15.754c-.36,0-.418-.126-.36-.54L25.618,23.008a10.656,10.656,0,0,0,.353-2.952c0-.238.119-.36.3-.36h7.546c.238,0,.36.065.418.36L45.691,58.828c.058.3,0,.468-.3.468h-5.94c-.3,0-.468-.108-.529-.346l-2.97-10.807H24.433Zm10.1-5.846c-1.008-3.982-3.456-12.708-4.342-16.92h-.058C29.354,29.6,27.4,36.716,25.913,42.3Zm19.3,3.686c.061,4.871,2.376,8.136,7.841,8.136a13.9,13.9,0,0,0,5.868-1.116c.241-.115.421-.054.421.241v4.514a.783.783,0,0,1-.36.72,16.031,16.031,0,0,1-7.236,1.368c-9.5,0-13.068-7.009-13.068-14.85,0-8.5,4.4-15.444,12.121-15.444,7.841,0,10.573,6.6,10.573,11.941a17.546,17.546,0,0,1-.306,3.805.5.5,0,0,1-.475.457,50.79,50.79,0,0,1-6,.238H53.82Zm7.308-4.95a19.913,19.913,0,0,0,2.671-.058c0-.245.061-.45.061-.626,0-1.962-.958-5.558-4.7-5.558-3.445,0-4.932,3.031-5.285,6.235h7.247Z" transform="translate(1072.322 2065.949)"/>
    </g>
    <g id="Job_FIG">
      <g id="Icon_feather-figma" data-name="Icon feather-figma" transform="translate(1200.534 2080.519)">
        <path id="Path_1" data-name="Path 1" d="M16.834,2h9.334a1,1,0,0,1,1,1V21.667a1,1,0,0,1-1,1H16.834A10.334,10.334,0,0,1,16.834,2Zm8.334,2H16.834a8.334,8.334,0,0,0,0,16.667h8.334Z" transform="translate(-7.502 -3)"/>
        <path id="Path_2" data-name="Path 2" d="M18,2h9.334a10.334,10.334,0,1,1,0,20.667H18a1,1,0,0,1-1-1V3A1,1,0,0,1,18,2Zm9.334,18.667A8.334,8.334,0,1,0,27.334,4H19V20.667Z" transform="translate(0.666 -3)"/>
        <path id="Path_3" data-name="Path 3" d="M27.334,33.167A10.334,10.334,0,1,1,37.667,22.834,10.345,10.345,0,0,1,27.334,33.167Zm0-18.667a8.334,8.334,0,1,0,8.334,8.334A8.343,8.343,0,0,0,27.334,14.5Z" transform="translate(0.666 5.168)"/>
        <path id="Path_4" data-name="Path 4" d="M16.834,23h9.334a1,1,0,0,1,1,1v9.334A10.334,10.334,0,1,1,16.834,23Zm8.334,2H16.834a8.334,8.334,0,1,0,8.334,8.334Z" transform="translate(-7.502 13.335)"/>
        <path id="Path_5" data-name="Path 5" d="M16.834,12.5h9.334a1,1,0,0,1,1,1V32.167a1,1,0,0,1-1,1H16.834a10.334,10.334,0,0,1,0-20.667Zm8.334,2H16.834a8.334,8.334,0,1,0,0,16.667h8.334Z" transform="translate(-7.502 5.168)"/>
      </g>
      <path id="Icon_simple-adobeaftereffects-2" data-name="Icon simple-adobeaftereffects" d="M0,.45V84.69H86.4V.45Zm3.6,3.6H82.8V81.09H3.6Z" transform="translate(1176 2065.949)"/>
    </g>
    <path id="Job_Id" d="M0,.45V84.689H86.4V.45Zm3.6,3.6H82.8v77.04H3.6ZM31.59,58.834c0,.36-.061.475-.475.475h-5.53c-.36,0-.475-.18-.475-.475V20.185c0-.36.18-.475.475-.475h5.591c.3,0,.414.119.414.418ZM37.962,44.9c0-8.615,5.681-15.325,14.767-15.325.77,0,1.188,0,1.9.054V20.07a.347.347,0,0,1,.36-.36h5.85c.3,0,.36.122.36.3V53.69a26.816,26.816,0,0,0,.18,3.614c0,.238-.072.3-.313.418a21.827,21.827,0,0,1-9.446,2.142c-7.967,0-13.669-4.932-13.669-14.969ZM54.63,35.449a5.335,5.335,0,0,0-2.138-.36c-4.626,0-7.873,3.564-7.873,9.5,0,6.775,3.3,9.5,7.463,9.5a6.967,6.967,0,0,0,2.556-.414V35.449Z" transform="translate(1274.641 2065.95)"/>
  </g></defs>
</svg>
