<svg xmlns="http://www.w3.org/2000/svg" width="86.4" height="84.24" viewBox="0 0 86.4 84.24">
  <g id="Job_XD" transform="translate(-657.6 -2066.4)">
    <g id="Group_8" data-name="Group 8" transform="translate(657.6 2066.4)">
      <path id="Icon_simple-adobexd" data-name="Icon simple-adobexd" d="M24.755,27.921l10.08,19.368c.18.288.072.576-.216.576H28.355A.706.706,0,0,1,27.6,47.4c-2.3-4.752-4.644-9.5-7.056-14.616h-.072c-2.16,4.824-4.536,9.9-6.84,14.652a.691.691,0,0,1-.648.4H7.043c-.36,0-.4-.288-.216-.5l9.864-18.792L7.151,9.525a.291.291,0,0,1,.216-.5h6.192a.567.567,0,0,1,.648.4c2.268,4.752,4.572,9.648,6.732,14.436h.072C23.1,19.1,25.4,14.169,27.635,9.453c.18-.288.288-.468.648-.468h5.8c.288,0,.4.216.216.5ZM36.6,33.789c0-8.388,5.58-14.94,14.436-14.94a15.964,15.964,0,0,1,1.872.072V9.381a.361.361,0,0,1,.36-.36h5.688c.288,0,.36.108.36.288V42.357a25.642,25.642,0,0,0,.18,3.528c0,.216-.072.288-.288.4a21.444,21.444,0,0,1-9.216,2.088C42.179,48.4,36.6,43.581,36.6,33.789Zm16.308-9.216a5.444,5.444,0,0,0-2.088-.36c-4.536,0-7.7,3.492-7.7,9.288,0,6.624,3.24,9.288,7.308,9.288a6.792,6.792,0,0,0,2.484-.4V24.573Z" transform="translate(9.41 11.499)"/>
      <path id="Icon_simple-adobeillustrator" data-name="Icon simple-adobeillustrator" d="M0,.45V84.69H86.4V.45H0Zm3.6,3.6H82.8V81.09H3.6Z" transform="translate(0.001 -0.45)"/>
    </g>
  </g>
</svg>
