<svg xmlns="http://www.w3.org/2000/svg" width="86.4" height="84.24" viewBox="0 0 86.4 84.24">
  <g id="Job_PR" transform="translate(-968.639 -2066.399)">
    <path id="Icon_simple-adobepremiere" data-name="Icon simple-adobepremiere" d="M0,.45V84.69H86.4V.45Zm3.6,3.6H82.8V81.09H3.6ZM22.669,20.171c0-.238.061-.418.36-.418,2.315-.119,5.7-.18,9.263-.18,9.979,0,14.317,5.468,14.317,12.478,0,9.144-6.62,13.068-14.756,13.068-1.368,0-1.843-.061-2.794-.061V58.892c0,.3-.119.418-.414.418H23.087c-.3,0-.418-.119-.418-.418ZM29.059,39.3c.832.058,1.487.058,2.912.058,4.216,0,8.161-1.483,8.161-7.186,0-4.572-2.815-6.89-7.628-6.89-1.426,0-2.79.058-3.445.119ZM52.1,36.029c0-.414,0-1.483-.176-3.5,0-.3.04-.36.277-.475a37.512,37.512,0,0,1,13.165-2.495c.3,0,.414.058.414.356V35.14c0,.3-.094.356-.392.356a20.61,20.61,0,0,0-6.8.713V58.892c0,.3-.122.418-.418.418H52.513c-.3,0-.414-.119-.414-.418Z" transform="translate(968.639 2065.949)"/>
  </g>
</svg>
