<svg xmlns="http://www.w3.org/2000/svg" width="86.4" height="84.24" viewBox="0 0 86.4 84.24">
  <g id="Job_AE" transform="translate(-1072.322 -2066.399)">
    <path id="Icon_simple-adobeaftereffects" data-name="Icon simple-adobeaftereffects" d="M0,.45V84.69H86.4V.45Zm3.6,3.6H82.8V81.09H3.6Zm20.822,44.1L21.571,58.9c-.061.3-.18.407-.533.407H15.754c-.36,0-.418-.126-.36-.54L25.618,23.008a10.656,10.656,0,0,0,.353-2.952c0-.238.119-.36.3-.36h7.546c.238,0,.36.065.418.36L45.691,58.828c.058.3,0,.468-.3.468h-5.94c-.3,0-.468-.108-.529-.346l-2.97-10.807H24.433Zm10.1-5.846c-1.008-3.982-3.456-12.708-4.342-16.92h-.058C29.354,29.6,27.4,36.716,25.913,42.3Zm19.3,3.686c.061,4.871,2.376,8.136,7.841,8.136a13.9,13.9,0,0,0,5.868-1.116c.241-.115.421-.054.421.241v4.514a.783.783,0,0,1-.36.72,16.031,16.031,0,0,1-7.236,1.368c-9.5,0-13.068-7.009-13.068-14.85,0-8.5,4.4-15.444,12.121-15.444,7.841,0,10.573,6.6,10.573,11.941a17.546,17.546,0,0,1-.306,3.805.5.5,0,0,1-.475.457,50.79,50.79,0,0,1-6,.238H53.82Zm7.308-4.95a19.913,19.913,0,0,0,2.671-.058c0-.245.061-.45.061-.626,0-1.962-.958-5.558-4.7-5.558-3.445,0-4.932,3.031-5.285,6.235h7.247Z" transform="translate(1072.322 2065.949)"/>
  </g>
</svg>
