<svg xmlns="http://www.w3.org/2000/svg" width="86.399" height="84.24" viewBox="0 0 86.399 84.24">
  <path id="Job_Id" d="M0,.45V84.689H86.4V.45Zm3.6,3.6H82.8v77.04H3.6ZM31.59,58.834c0,.36-.061.475-.475.475h-5.53c-.36,0-.475-.18-.475-.475V20.185c0-.36.18-.475.475-.475h5.591c.3,0,.414.119.414.418ZM37.962,44.9c0-8.615,5.681-15.325,14.767-15.325.77,0,1.188,0,1.9.054V20.07a.347.347,0,0,1,.36-.36h5.85c.3,0,.36.122.36.3V53.69a26.816,26.816,0,0,0,.18,3.614c0,.238-.072.3-.313.418a21.827,21.827,0,0,1-9.446,2.142c-7.967,0-13.669-4.932-13.669-14.969ZM54.63,35.449a5.335,5.335,0,0,0-2.138-.36c-4.626,0-7.873,3.564-7.873,9.5,0,6.775,3.3,9.5,7.463,9.5a6.967,6.967,0,0,0,2.556-.414V35.449Z" transform="translate(0 -0.45)"/>
</svg>
