<svg xmlns="http://www.w3.org/2000/svg" width="86.4" height="84.24" viewBox="0 0 86.4 84.24">
  <g id="Job_git" transform="translate(-1488 -2066.399)">
    <g id="Group_2220" data-name="Group 2220">
      <g id="Job_FIG" transform="translate(312)">
        <path id="Icon_simple-adobeaftereffects" data-name="Icon simple-adobeaftereffects" d="M0,.45V84.69H86.4V.45Zm3.6,3.6H82.8V81.09H3.6Z" transform="translate(1176 2065.949)"/>
      </g>
      <path id="Icon_feather-github" data-name="Icon feather-github" d="M25.118,58.419C9.319,63.159,9.319,50.52,3,48.94M47.236,67.9V55.67a10.648,10.648,0,0,0-2.97-8.247c9.921-1.106,20.348-4.866,20.348-22.118a17.187,17.187,0,0,0-4.737-11.847A16.02,16.02,0,0,0,59.59,1.544S55.862.439,47.236,6.221a42.277,42.277,0,0,0-22.118,0C16.492.439,12.763,1.544,12.763,1.544a16.02,16.02,0,0,0-.284,11.912A17.189,17.189,0,0,0,7.74,25.4c0,17.126,10.427,20.886,20.348,22.118a10.648,10.648,0,0,0-2.97,8.152V67.9" transform="translate(1497.393 2078.642)" fill="none" stroke="#000" stroke-linecap="round" stroke-linejoin="round" stroke-width="6"/>
    </g>
  </g>
</svg>
