<svg xmlns="http://www.w3.org/2000/svg" width="86.4" height="84.24" viewBox="0 0 86.4 84.24">
  <g id="Job_PS" transform="translate(-761.278 -2066.399)">
    <path id="Icon_simple-adobephotoshop" data-name="Icon simple-adobephotoshop" d="M0,.45V84.69H86.4V.45Zm3.6,3.6H82.8V81.09H3.6ZM20.88,20.178c0-.241.5-.418.806-.418,2.318-.119,5.717-.18,9.281-.18,9.979,0,13.86,5.472,13.86,12.478,0,9.144-6.631,13.068-14.767,13.068-1.368,0-1.836-.061-2.79-.061V58.9c0,.3-.119.418-.414.418H21.3c-.3,0-.414-.108-.414-.407V20.178ZM27.27,39.3c.828.058,1.483.058,2.916.058,4.212,0,8.172-1.483,8.172-7.186,0-4.572-2.83-6.89-7.639-6.89-1.426,0-2.79.058-3.445.119v13.91Zm30.985-4.277c-2.851,0-3.8,1.426-3.8,2.614,0,1.307.648,2.2,4.453,4.158C64.552,44.532,66.33,47.142,66.33,51c0,5.76-4.392,8.856-10.332,8.856a15.729,15.729,0,0,1-7.38-1.548c-.234-.119-.288-.3-.288-.594V52.434c0-.36.173-.479.41-.3a13.262,13.262,0,0,0,7.243,2.138c2.851,0,4.039-1.188,4.039-2.794,0-1.307-.828-2.437-4.453-4.338-5.112-2.448-7.25-4.932-7.25-9.1,0-4.633,3.622-8.5,9.918-8.5A16.78,16.78,0,0,1,64.7,30.553a.785.785,0,0,1,.36.713V36.2c0,.3-.18.479-.54.36a12.892,12.892,0,0,0-6.275-1.548Z" transform="translate(761.278 2065.949)"/>
  </g>
</svg>
