<svg xmlns="http://www.w3.org/2000/svg" width="86.4" height="84.24" viewBox="0 0 86.4 84.24">
  <g id="Job_VS" transform="translate(-1599 -2066.399)">
    <g id="Group_2221" data-name="Group 2221">
      <g id="Job_FIG" transform="translate(423)">
        <path id="Icon_simple-adobeaftereffects" data-name="Icon simple-adobeaftereffects" d="M0,.45V84.69H86.4V.45Zm3.6,3.6H82.8V81.09H3.6Z" transform="translate(1176 2065.949)"/>
      </g>
      <path id="Icon_simple-visualstudiocode" data-name="Icon simple-visualstudiocode" d="M47.189,5.24,37.119.395a3.045,3.045,0,0,0-3.475.591L14.361,18.577,5.962,12.2a2.036,2.036,0,0,0-2.6.116L.667,14.767a2.038,2.038,0,0,0,0,3.015l7.283,6.645L.665,31.073a2.038,2.038,0,0,0,0,3.015l2.7,2.448a2.036,2.036,0,0,0,2.6.116l8.4-6.376L33.646,47.867a3.041,3.041,0,0,0,3.473.591l10.074-4.845a3.058,3.058,0,0,0,1.729-2.756V8A3.058,3.058,0,0,0,47.189,5.24ZM36.7,35.533,22.068,24.427,36.7,13.322v22.21Z" transform="translate(1617.74 2084.093)"/>
    </g>
  </g>
</svg>
