<svg xmlns="http://www.w3.org/2000/svg" viewBox="0 0 1311.09 312.64"><defs><style>.cls-1{fill:#1c4a92;}.cls-2{fill:#fff;}.cls-3{fill:#231f20;}</style></defs><g id="Layer_2" data-name="Layer 2"><g id="svg5704"><path class="cls-1" d="M33.09,96.81c0,4.9-.62,44.72,24.5,85.77,22.06,37.38,55.76,53.31,69.85,58.82,14.09-4.9,47.79-21.44,69.85-58.82,25.12-41.05,24.5-80.87,24.5-85.77V0H33.09Z"/><path class="cls-1" d="M232.82,142.14l-.61,3.07-3.68,11-8-7.36L219.34,152a157.82,157.82,0,0,1-16.54,35.53c-17.77,28.19-42.89,49-72.3,60.05a29.42,29.42,0,0,0-3.06,1.22,10.34,10.34,0,0,0-3.06-1.22c-29.41-11-53.92-31.86-71.69-60.05A171.33,171.33,0,0,1,36.15,152l-1.23-3.07-2.45,1.84L27,155.62c-1.23-3.67-2.45-6.74-3.68-11l-.61-3.07L20.22,144,0,162.36l.61,1.23c4.9,15.32,12.87,31.25,18.38,42.27l1.23,2.46L28.8,201c.61.62.61,1.23,1.22,1.84,20.83,33.7,50.86,58.21,86.39,71.07l12.26,4.29,11.64-4.9c35.53-12.87,64.94-37.37,85.77-71.07.62-.61.62-1.23,1.23-1.84l8.58,7.35,1.22-2.45A212.18,212.18,0,0,0,255.49,163l.62-1.23-23.29-19.61Z"/><path class="cls-2" d="M205.86,42.28c0,1.22-.61,2.45-.61,3.67,0,.61-.61,1.23-1.22,1.84s-1.84.61-2.45,1.23V47.79a4.52,4.52,0,0,1,1.22-3.68,10.37,10.37,0,0,1,3.68-3.67A4.68,4.68,0,0,0,205.86,42.28ZM190.55,68a13.54,13.54,0,0,1,4.9.61,9.82,9.82,0,0,1-4.29,2.45,13.54,13.54,0,0,1-4.9-.61C187.48,69.23,188.71,68,190.55,68Zm-8,2.45a11.4,11.4,0,0,1,1.23-4.9,6.3,6.3,0,0,1,3.67-3.07v.62a8.9,8.9,0,0,1-1.22,4.29C185.65,69.23,183.81,69.85,182.58,70.46Zm6.13-8.58a4.76,4.76,0,0,1,2.45-2.45c0,.61.61,1.23.61,2.45a3.69,3.69,0,0,1-.61,2.45c-.61,1.23-1.23,1.84-1.84,3.07-.61,0-.61,0-1.22.61A23.09,23.09,0,0,0,188.71,61.88Zm3.68-4.29c.61-1.22,1.22-1.84,1.83-3.06a11.19,11.19,0,0,1,1.23,4.29v.61a4.62,4.62,0,0,1-1.23,3.06c-.61,0-.61.62-1.22.62a17.07,17.07,0,0,0-.61-5.52Zm2.45-4.29a26.67,26.67,0,0,1,.61-3.06,9.92,9.92,0,0,1,2.45,4.29v1.22a3.72,3.72,0,0,1-.61,2.46l-.62.61a28.78,28.78,0,0,0-1.83-5.52Zm1.22-5.51V46a2.27,2.27,0,0,1,.61-1.84c1.23,1.23,2.45,1.84,3.07,3.68a5.55,5.55,0,0,1,.61,3.06v.62c0,.61-.61.61-.61,1.22A34.12,34.12,0,0,0,196.06,47.79Zm0-4.9a7.82,7.82,0,0,1-.61-3.68c1.84.61,3.06,1.23,3.67,3.07.62,1.22,1.23,1.83,1.23,3.06,0,.61,0,.61-.61,1.22a5.54,5.54,0,0,0-3.68-3.67Zm3.68-3.07a7.61,7.61,0,0,0-4.9-2.45,4.62,4.62,0,0,1-1.23-3.06,5.55,5.55,0,0,1,4.29,1.84c.61.61,1.84,1.84,1.84,3.06Zm-1.84-5.51c-1.23-1.22-3.06-1.22-4.9-1.22A6.1,6.1,0,0,1,190.55,30a13.54,13.54,0,0,1,4.9.61,4.82,4.82,0,0,1,2.45,2.46v1.22Zm-3.68,32.47c-.61,0-1.83-.61-2.45-.61a16.31,16.31,0,0,1,3.68-3.06,13.33,13.33,0,0,1,4.9-.62,16.11,16.11,0,0,1-3.68,3.07c-.61,1.22-1.22,1.22-2.45,1.22Zm4.9-5.51h-2.45c.62-1.23,1.23-3.06,3.07-3.68,1.22-1.22,3.06-1.22,4.9-1.22a11,11,0,0,1-3.06,4.29c-1.23,0-1.84.61-2.46.61Zm4.91-8c-.62.62-1.23,1.23-1.84,1.23s-1.84.61-2.45.61a5.55,5.55,0,0,1,1.84-4.29,10,10,0,0,1,4.28-2.45C205.25,50.85,205.25,52.08,204,53.3Zm.61-16.54V38.6c0,.61-.61,1.22-1.23,2.45l-1.83,1.84a5.49,5.49,0,0,1-.62-3.07V38a10,10,0,0,1,2.45-4.29,3.94,3.94,0,0,1,1.23,3.06Zm-5.52-4.9c0-1.84.62-3.06,1.84-4.9a6.92,6.92,0,0,1,1.84,4.9,3.69,3.69,0,0,1-.61,2.45A3.2,3.2,0,0,0,201,36.76C199.74,34.92,199.12,33.7,199.12,31.86Zm-3.67-10.42c1.22,1.23,2.45,2.45,2.45,4.29v2.45a3.71,3.71,0,0,0-.61,2.45c-.62-1.22-1.84-3.06-1.84-4.28V24.51c-.61-1.23,0-2.45,0-3.07Zm-.61,7.36a16.81,16.81,0,0,0-5.52-.62,10.62,10.62,0,0,1-3.06-2.45,13.54,13.54,0,0,1,4.9-.61A3.35,3.35,0,0,1,194.22,27C194.22,28.18,194.84,28.18,194.84,28.8Zm-5.52-12.26A5.54,5.54,0,0,1,193,20.22a2.25,2.25,0,0,1,.61,1.84v2.45a16.59,16.59,0,0,1-3.68-3.07,21.55,21.55,0,0,1-.61-3.67Zm-1.84,3.68h0c.62,1.22.62,1.84,1.23,2.45s.61,1.22,1.22,1.84a8.86,8.86,0,0,1-4.28-1.23A10.88,10.88,0,0,1,182.58,19C185,18.38,186.26,19,187.48,20.22Z"/><path class="cls-2" d="M165.43,55.75a1.62,1.62,0,0,1,1.83,1.84v.62c0,.61,0,.61.62.61h2.45V27.57a33.37,33.37,0,0,1,3.06-14.7l.61-1.23.62,1.23a43.41,43.41,0,0,1,2.45,14.7V59.43h2.45a.6.6,0,0,0,.61-.61v-.61a1.84,1.84,0,1,1,3.68,0c0,1.22-1.23,2.45-3.68,2.45h-4.29a17.87,17.87,0,0,1,1.23,6.12,22.67,22.67,0,0,1-1.23,7.36,30.39,30.39,0,0,0,8-2.46l.61,1.23a18.23,18.23,0,0,1-6.13,2.45,12.41,12.41,0,0,1-3.06.61c.61,0,.61.62.61,1.23a1.84,1.84,0,1,1-3.67,0c0-.61,0-1.23.61-1.23a12.41,12.41,0,0,1-3.06-.61,18.15,18.15,0,0,1-6.13-2.45l.61-1.23a30.39,30.39,0,0,0,8,2.46c-1.23-1.84-1.23-4.29-1.23-7.36a17.87,17.87,0,0,1,1.23-6.12h-4.29c-2.45,0-3.07-1.23-3.07-2.45-1.22-1.23-.61-2.46.62-2.46Zm-6.74,11h-1.23c-.61-.61-1.84-1.83-1.84-3.06,0-.61-.61-1.84-.61-2.45a4.64,4.64,0,0,1,.61-2.45l2.45,2.45C158.07,63.72,158.07,65.56,158.69,66.78ZM154.4,32.47a11.55,11.55,0,0,0-4.9,1.23V32.47c.61-1.22,1.83-1.84,2.45-2.45a6.53,6.53,0,0,1,4.9-.61A6.13,6.13,0,0,1,154.4,32.47Zm0,30.64c-.61,0-.61,0-1.23-.62-.61-1.22-1.22-1.83-1.22-3.06v-.61a8.75,8.75,0,0,1,1.22-3.68c.62,1.23,1.23,1.84,1.84,3.07-1.22,1.22-1.22,3.06-.61,4.9Zm-5.52-9.19c0-1.84,1.23-3.07,2.45-4.29a8.59,8.59,0,0,1,1.23,3.67c-1.23,1.84-1.84,3.07-1.84,4.91l-.61-.62c0-.61-.61-1.84-.61-2.45C148.88,54.53,148.88,54.53,148.88,53.92Zm-.61-1.84h0c-.61,0-.61-.61-.61-1.23v-.61a5.53,5.53,0,0,1,.61-3.06,16.31,16.31,0,0,1,3.06-3.68c0,.61.62,1.23.62,1.84v1.84C149.5,49,148.27,50.85,148.27,52.08Zm.61-15.93a7,7,0,0,1,4.91-1.84c-.62,1.23-.62,2.45-1.23,3.06-1.84.62-3.68,1.23-4.29,2.45V38.6c-.61-.61,0-1.84.61-2.45Zm-1.22,5.51a9,9,0,0,1,3.67-3.06,7.84,7.84,0,0,1-.61,3.68A7.12,7.12,0,0,0,147.05,46c0-.61,0-.61-.62-1.22A10.46,10.46,0,0,1,147.66,41.66Zm-.61,14.09c-.62-.61-1.23-.61-2.45-.61-.62-.61-1.23-.61-1.84-1.22a7,7,0,0,1-1.84-4.9,9.82,9.82,0,0,1,4.29,2.45,6.63,6.63,0,0,1,1.84,4.28Zm.61,1.84a16.31,16.31,0,0,1,3.06,3.68h-2.45c-.61,0-1.22-.61-1.84-1.23a11,11,0,0,1-3.06-4.29c1.23.62,3.06,1.23,4.29,1.84Zm3.67,6.13A16.09,16.09,0,0,1,155,66.78a3.65,3.65,0,0,0-2.45.62,3.65,3.65,0,0,1-2.45-.62,6.27,6.27,0,0,1-3.68-3.06C148.27,62.49,150.11,62.49,151.33,63.72ZM156.24,68c1.83,0,3.06,1.22,4.29,2.45-1.84.61-3.07,1.22-4.91.61-1.83,0-3.06-1.22-4.29-2.45A15.33,15.33,0,0,1,156.24,68Z"/><path class="cls-2" d="M160.53,67.4a8.79,8.79,0,0,1-1.23-4.29v-.62A6.32,6.32,0,0,1,163,65.56a8.86,8.86,0,0,1,1.22,4.29v.61A8.18,8.18,0,0,1,160.53,67.4Zm-2.46-45.34c0-.62.62-1.23.62-1.84l.61-.61c1.23-1.23,3.06-1.23,4.9-1.23a11,11,0,0,1-3.06,4.29,8.9,8.9,0,0,1-4.29,1.22C157.46,23.28,157.46,22.67,158.07,22.06Zm-4.28-1.84c.61-1.84,1.83-2.45,3.67-3.68v1.23a7.78,7.78,0,0,1-.61,3.67,7.42,7.42,0,0,1-3.06,3.07V22.06C153.17,21.44,153.79,20.83,153.79,20.22Zm-1.23,7.35a13.79,13.79,0,0,1,3.06-1.84c1.23-.61,3.07,0,4.91.62-.62.61-1.84,1.83-2.46,1.83a16.78,16.78,0,0,0-5.51.62Zm-3.68-1.84a10,10,0,0,1,2.45-4.29,5.49,5.49,0,0,1,.62,3.07v1.84c-.62,1.22-1.23,3.06-2.45,4.28,0-.61-.62-1.83-.62-2.45v-.61C148.27,26.35,148.27,26.35,148.88,25.73Zm-4.28,6.13c0-1.84.61-3.06,1.83-4.9a6.92,6.92,0,0,1,1.84,4.9,8.9,8.9,0,0,1-1.22,4.29l-1.84-1.84c0-.61-.61-1.84-.61-2.45Zm-1.84,1.84A11,11,0,0,1,145.82,38v1.83a5.57,5.57,0,0,1-.61,3.07l-1.84-1.84c-.61-.61-.61-1.23-1.23-2.45V36.76A26.29,26.29,0,0,0,142.76,33.7Zm-1.84,7.35a5.54,5.54,0,0,1,3.68,3.68,7.78,7.78,0,0,1,.61,3.67V49a3.17,3.17,0,0,0-2.45-1.23c-.62-.61-1.23-1.23-1.23-1.84a8.71,8.71,0,0,1-1.22-3.67C140.92,42.28,140.92,41.66,140.92,41.05Z"/><path class="cls-1" d="M175.23,27.57a45.55,45.55,0,0,0-1.84-12.25V57.59h1.84Z"/><path class="cls-2" d="M96.19,61.88c3.07.61,6.74,1.84,10.42,1.23V19a34.84,34.84,0,0,1-11-1.83A47.43,47.43,0,0,0,87,15.93c-3.67,0-5.51,1.23-6.74,2.45V62.49A12.4,12.4,0,0,1,87,60.66C90.07,60,93.13,61.27,96.19,61.88ZM71.07,60.66a11,11,0,0,1,6.74,1.83V18.38c-1.22-1.22-3.06-2.45-6.74-2.45a47.56,47.56,0,0,0-8.58,1.23c-3.67,1.22-7.35,2.45-11,1.83V63.11a60.57,60.57,0,0,0,10.41-1.23C65,61.27,68,60,71.07,60.66Z"/><path class="cls-2" d="M112.12,20.22h-2.45V67.4H81.49A3.19,3.19,0,0,1,79,68.62c-1.23,0-1.84,0-2.45-1.22H48.4V19.61H44.73V69.85H75.36a4,4,0,0,0,7.35,0h30.64V20.22Z"/><path class="cls-1" d="M87,27a9.13,9.13,0,0,0-4.29.61V30A9.13,9.13,0,0,1,87,29.41a48.25,48.25,0,0,1,8.58,1.22c2.45.62,5.51,1.23,8,1.84V30a18.78,18.78,0,0,1-8-1.84A36.27,36.27,0,0,0,87,27Zm0,25.73a9.13,9.13,0,0,0-4.29.61v2.45A9.13,9.13,0,0,1,87,55.14a47.43,47.43,0,0,1,8.58,1.23c2.45.61,5.51,1.22,8,1.84V55.75a36,36,0,0,1-8-1.22C93.13,53.3,90.07,52.08,87,52.69Zm0-5.51a9.13,9.13,0,0,0-4.29.61v2.45A9.13,9.13,0,0,1,87,49.63a48.25,48.25,0,0,1,8.58,1.22c2.45.62,5.51,1.23,8,1.84V50.24a36,36,0,0,1-8-1.22A19.49,19.49,0,0,0,87,47.18Zm0-15.32a9.13,9.13,0,0,0-4.29.61v2.45A9.13,9.13,0,0,1,87,34.31a47.43,47.43,0,0,1,8.58,1.23c2.45.61,5.51,1.22,8,1.83V34.92a36,36,0,0,1-8-1.22A19.49,19.49,0,0,0,87,31.86Zm0,10.42a9.13,9.13,0,0,0-4.29.61v2.45A9.13,9.13,0,0,1,87,44.73,48.25,48.25,0,0,1,95.58,46c2.45.61,5.51,1.23,8,1.84V45.34a35.4,35.4,0,0,1-8-1.23A19.63,19.63,0,0,0,87,42.28Zm9.19-19c-3.06-.61-6.12-1.84-9.19-1.22a9.13,9.13,0,0,0-4.29.61v2.45A9.13,9.13,0,0,1,87,24.51a48.25,48.25,0,0,1,8.58,1.22c2.45.62,5.51,1.23,8,1.84V24.51A30.88,30.88,0,0,1,96.19,23.28ZM61.88,49a30.86,30.86,0,0,1-7.35,1.22v2.45a16.89,16.89,0,0,0,8-1.84,48.38,48.38,0,0,1,8.58-1.22c1.84,0,3.07.61,4.29.61V47.79a9.11,9.11,0,0,0-4.29-.61A27.08,27.08,0,0,0,61.88,49Zm0-5.52-7.35,1.84v1.84a21.77,21.77,0,0,0,8.58-1.84,48.24,48.24,0,0,1,8.57-1.23c1.84,0,3.07.62,4.29.62V42.89a9.11,9.11,0,0,0-4.29-.61C68,42.28,65.56,42.89,61.88,43.5ZM87,36.76a9.13,9.13,0,0,0-4.29.61v2.45A9.13,9.13,0,0,1,87,39.21a47.43,47.43,0,0,1,8.58,1.23,36,36,0,0,0,8,1.22V39.82a18.91,18.91,0,0,1-8-1.83C93.13,38,90.07,36.76,87,36.76ZM61.88,53.92l-7.35,1.83v1.84a16.89,16.89,0,0,0,8-1.84,48.38,48.38,0,0,1,8.58-1.22c1.84,0,3.07.61,4.29.61V53.3a9.11,9.11,0,0,0-4.29-.61C68,52.08,65.56,53.3,61.88,53.92Zm0-30.64a30.88,30.88,0,0,1-7.35,1.23v1.84a17,17,0,0,0,8-1.84,47.56,47.56,0,0,1,8.58-1.23c1.84,0,3.07.61,4.29.61V22.06c-1.22,0-2.45-.62-4.29-.62A24.73,24.73,0,0,0,61.88,23.28Zm0,4.9L54.53,30v1.84a16.89,16.89,0,0,0,8-1.84,48.38,48.38,0,0,1,8.58-1.22c1.84,0,3.07.61,4.29.61V27.57A9.11,9.11,0,0,0,71.07,27,47.59,47.59,0,0,0,61.88,28.18Zm0,10.42a30.86,30.86,0,0,1-7.35,1.22v1.84a31.15,31.15,0,0,0,8-1.22,47.56,47.56,0,0,1,8.58-1.23c1.84,0,3.07.61,4.29.61V38a9,9,0,0,0-4.29-.62C68,36.76,65.56,38,61.88,38.6Zm0-4.9a30.86,30.86,0,0,1-7.35,1.22v1.84a21.59,21.59,0,0,0,8.58-1.84,48.15,48.15,0,0,1,8.57-1.22c1.23.61,2.46.61,3.68,1.22V32.47a9.11,9.11,0,0,0-4.29-.61A27.08,27.08,0,0,0,61.88,33.7Z"/><path class="cls-2" d="M101.71,176.46l-.62,6.73-4.9-4.28-5.51,4.28v-6.73l-6.13-1.84,4.9-3.68L87,164.81,93.13,166l3.06-5.51L99.26,166l6.12-1.23-2.45,6.13,4.9,3.68Zm35.53,45.95L130.5,220l-3.06,6.12L125,220l-6.74,2.45,2.45-6.74-6.13-3.07,6.13-2.45-2.45-6.74,6.74,2.45,2.45-6.12,3.06,6.12,6.74-2.45-2.45,6.74,6.13,2.45-6.13,3.07Zm-19-87.62,6.13,1.84,3.06-6.13,3.06,6.13,6.13-1.84-2.45,6.13,4.9,4.29L133,146.43v6.74l-5.51-3.67-4.9,3.67v-6.74l-6.74-1.22,4.9-4.29ZM144,187.48l-4.9-2.45-4.9,2.45.61-5.51-3.67-3.68,5.51-1.22,2.45-4.9,2.45,4.9,5.52,1.22L143.37,182Zm20.83-20.22h-6.12l-2.45,4.91-3.07-4.91h-5.51l2.45-4.9-2.45-4.9h5.51l3.07-4.9,2.45,4.9h6.12l-3.06,4.9Z"/><path class="cls-2" d="M127.44,106.61l71.68,64.33c4.91-9.19,8-17.77,11-26.34L127.44,70.46,44.73,144.6a134.64,134.64,0,0,0,11,26.34ZM239,193l3.68-23.9-11-9.8a46.09,46.09,0,0,0,3.06-9.8c3.06,3.06,14.71,12.86,15.93,14.7A235.21,235.21,0,0,1,239,193Zm-5.51,8a27.21,27.21,0,0,0-4.29-3.67,92.65,92.65,0,0,0,6.74-13.48L233.44,201ZM4.29,163.59c1.84-1.23,12.87-11.64,15.93-14.71,1.22,3.07,1.84,6.13,3.06,9.19l-11,9.81,3.68,23.89A149.64,149.64,0,0,1,4.29,163.59ZM21.44,201,19,183.81a73,73,0,0,0,7.36,13.48A34.24,34.24,0,0,0,21.44,201Z"/><path class="cls-2" d="M222.41,199.74c-20.83,33.08-49.63,57-83.94,69.23,0,0-9.8,3.68-11,4.29-1.23-.61-11-4.29-11-4.29a168.29,168.29,0,0,1-83.94-69.23c-6.12-9.19-11-19.61-15.31-30,1.83-1.84,12.25-11,15.93-14.1A188.43,188.43,0,0,0,49,189.32c18.38,28.8,44.11,50.24,74.13,61.27l4.29,1.84,4.29-1.84c30-11,55.75-32.47,74.13-61.27,6.74-10.41,11.65-22.06,15.93-33.7,3.07,3.07,14.1,12.26,15.93,14.1a153.63,153.63,0,0,1-15.31,30Z"/><path class="cls-1" d="M39.21,189.32l3.07-3.67v-1.23l-1.84-1.84c-3.68.61-8.58,1.23-11,1.84l-.61-.61-.62.61c.62.61.62,1.23,1.23,1.84-.61,0,0,.61.61,1.22l.61-.61v-1.22l3.68-.62,1.84,3.07-2.45,2.45-.61-.62-.62.62A4.6,4.6,0,0,1,33.7,193c.61.61.61,1.84,1.22,2.45l.62-.61-.62-1.23c.62,0,2.45-2.45,4.29-4.29ZM34.92,185l4.29-1.22-2.45,3.67Zm20.22,20.83h.61c-.61-.61-1.22-1.22-1.22-1.83-.61-.62-.61-1.23-1.23-1.84l-.61.61L53.3,204c-1.83,1.22-6.12,4.29-6.12,4.29,1.22-3.07,2.45-6.13,3.67-9.81-.61-.61-.61-1.22-1.22-1.84a1.32,1.32,0,0,1-1.23-1.22l-.61.61.61.61c-.61.62-1.84,1.23-2.45,1.84l-3.06,1.84a8.35,8.35,0,0,0-2.45,1.84l-.62-.61-.61.61c.61.61.61,1.22,1.23,1.84s.61,1.22,1.22,1.83l.62-.61L41.66,204c1.84-1.23,4.29-3.07,6.13-4.29-1.23,3.06-2.45,6.12-3.68,9.8,0,.61.62.61.62,1.23s.61.61.61,1.22A9.41,9.41,0,0,1,49,209.54l2.45-1.84c1.22-.61,1.83-1.22,3.06-1.84Zm.61,9.81c-3.06,2.45-2.45,6.12,0,8.58,1.23,1.83,3.07,2.45,6.13,3.06v-1.23c-1.84,0-2.45-.61-3.67-1.83a4.09,4.09,0,0,1,0-6.13,3.86,3.86,0,0,1,5.51,0A4.67,4.67,0,0,1,65,220.57l-.62.61.62.61a4.62,4.62,0,0,1,2.45-1.22A13.1,13.1,0,0,0,65,216.89C62.49,213.22,58.82,212.6,55.75,215.67ZM79,229.15c-3.07-3.07-7.36-2.45-9.19.61-2.45,3.06-1.84,6.13,1.22,9.19,3.68,3.06,7.35,2.45,9.19-.61C82.71,235.27,82.1,232.21,79,229.15Zm-1.23,7.35c-1.84,1.84-4.29,2.45-5.51,1.22-1.84-1.22-1.84-3.67,0-5.51s4.29-2.45,5.51-1.23C79.65,232.21,79,234.66,77.81,236.5ZM96.19,242c-.61-.61-1.22-.61-2.45-1.22-.61-.61-1.22-.61-2.45-1.23-.61-.61-1.22-.61-1.84-1.22l-.61.61.61.61a13.89,13.89,0,0,0-1.84,3.07l-1.83,3.06a8.67,8.67,0,0,1-1.84,2.45l-1.23-.61-.61.61a4.67,4.67,0,0,0,2.45,1.23A3.19,3.19,0,0,0,87,250.59l.61-.61-.61-.61a8.09,8.09,0,0,1,1.84-3.07l.61-.61.62.61c0,1.84.61,4.9.61,6.74a13.42,13.42,0,0,1,3.06,1.84l.61-.61-.61-.62a27,27,0,0,0-1.22-6.12c1.83.61,3.06.61,4.29-1.23C98.64,245.08,98.64,243.85,96.19,242ZM95,245.08c-.62,1.22-1.84,1.22-3.68,0a.6.6,0,0,1-.61-.62l.61-.61A9,9,0,0,0,92.52,242c.61,0,.61.62,1.22.62,1.84.61,1.84,1.22,1.23,2.45Zm18.38,6.12-.61-.61a3.72,3.72,0,0,1-2.46-.61l-8,8h-1.23v.62c.62,0,1.23.61,1.84.61s1.23.61,1.84,1.22l.61-.61-.61-.61,2.45-2.45,3.68,1.84a7.66,7.66,0,0,1-.62,3.67h-1.22l-.61.61c.61.62,1.83.62,2.45,1.23s1.84.61,2.45,1.23l.61-.62-.61-.61a30.17,30.17,0,0,1,.61-6.74l-.61-6.13Zm-3.07,4.91-3.06-1.23,3.06-3.68Zm37.38,4.28a4.67,4.67,0,0,1-1.23-3.06l-1.22-3.06c-.61-1.23-.61-1.84-1.23-3.07l1.23-.61-.61-.61c-.62.61-1.84.61-2.46,1.22s-1.83.62-2.45,1.23l.62.61h1.22a4.7,4.7,0,0,1,1.23,3.07l1.22,3.06c.62,1.22.62,1.84,1.23,3.06l-1.23.61.62.62c.61-.62,1.83-.62,2.45-1.23s1.83-.61,2.45-1.22l-.62-.62Zm21.44-11.64c-.61-.61-1.22-1.84-1.84-2.45l-1.83-3.06c-.62-1.23-1.23-1.84-1.84-3.06l.61-.62-.61-.61c-.61.61-1.23.61-1.84,1.23s-1.22.61-2.45,1.22a43.14,43.14,0,0,1,1.84,8.58,54.36,54.36,0,0,0-6.74-5.52c-.61.62-1.23.62-1.84,1.23s-1.23.61-2.45,1.22l.61.62,1.23-.62.61,1.23c.61,1.23,3.68,6.13,4.29,7.35l-.61.62.61.61c.61-.61,1.22-.61,1.84-1.23s1.22-.61,1.84-1.22l-.62-.62-.61,1.23c-.61-.61-1.23-1.84-1.84-2.45l-1.22-1.84a13.79,13.79,0,0,0-1.84-3.06c4.29,3.67,6.74,5.51,8,6.74L164.2,253l-2.45-10.41a6.51,6.51,0,0,1,1.84,3.06l1.22,1.84c.62,1.22,1.23,1.84,1.23,3.06l-.61.61.61.62a3.15,3.15,0,0,1,2.45-1.23c.61-.61,1.84-.61,2.45-1.22l-.61-.62Zm11.64-8.57-2.45-2.46-1.22-1.83a13.51,13.51,0,0,1-1.84-3.07c0-.61.61-.61.61-1.22a2,2,0,0,1,3.07,0c.61,1.22,1.22,2.45,0,3.06l-.62.61.62,1.23a1.31,1.31,0,0,0,1.22-1.23c2.45-1.83,2.45-4.9,1.23-6.12q-1.85-2.76-5.52,0c-.61.61-1.22.61-1.84,1.22l-1.83,1.84c-.62.61-1.23,1.23-1.84,1.23l.61.61,1.23-.61,2.45,2.45,1.84,2.45a8.49,8.49,0,0,0,1.83,2.45l-1.22,2.45.61.61a8.67,8.67,0,0,1,2.45-1.84,8.49,8.49,0,0,1,2.45-1.83l-.61-.62-1.23.62Zm19-17.77a61.43,61.43,0,0,0-6.13-2.45l-4.29-1.84H188.1c-.62.61-.62,1.22-1.23,2.45,1.84,3.06,3.68,8,4.9,10.41l-.61.62.61.61c.62-.61.62-1.23,1.23-1.23l1.84-1.83-.62-.62-.61.62-1.84-3.07,2.45-3.06a13.51,13.51,0,0,1,3.07,1.84l-.62.61.62.61,1.83-1.83,1.84-1.84-.61-.62-.61.62Zm-9.19,2.45-2.45-4.29,4.29,1.84-1.84,2.45Zm22.67-19c-.62,0-4.9,0-6.13.62.61-1.84.61-3.07-.61-4.29s-3.07-1.23-4.9,1.22c-.62.62-1.23,1.23-1.23,1.84-.61.61-1.23,1.23-1.23,1.84-.61.61-.61,1.23-1.22,1.84l.61.61.61-.61c.62.61,1.84,1.22,2.46,1.84L204,212.6a8.82,8.82,0,0,1,2.45,1.84l-.62,1.23.62.61a8.67,8.67,0,0,0,1.84-2.45,8.49,8.49,0,0,0,1.83-2.45l-.61-.61L208.32,212c-.62-.61-1.84-1.22-2.46-1.84l-.61-.61.61-.61h6.74c.62-1.23,1.23-1.84,1.84-3.07ZM204,207.7l-.62.62-.61-.62c-.61-.61-1.22-1.22-1.84-1.22,0-.62.62-.62.62-1.23a1.52,1.52,0,0,1,2.45-.61c1.22.61,1.22,1.84,0,3.06ZM220,185c-3.68-1.84-6.74-.61-8.58,3.07-2.45,3.67-1.23,7.35,1.84,9.19s6.74.61,8.57-3.07c2.46-3.67,1.23-7.35-1.83-9.19Zm.61,8a3.46,3.46,0,0,1-5.52.61c-2.45-1.22-3.06-3.68-1.83-5.51s3.67-1.84,5.51-.62S221.79,191.16,220.57,193Zm-93.13,65.56a2.45,2.45,0,1,0,2.45,2.45A2.63,2.63,0,0,0,127.44,258.56Zm-98-83.33a2.45,2.45,0,1,0,0-4.9,2.45,2.45,0,0,0,0,4.9Zm196.67,0a2.45,2.45,0,1,0-2.45-2.45C223,174,224.25,175.23,226.08,175.23Z"/><path class="cls-3" d="M335,204.24v51.51c0,21.23-8.78,31.13-27.46,31.13-21.51,0-26-17-26-31.13V204.24h-6.22v51.51c0,24.34,11,36.51,32.54,36.51,22.36,0,33.68-12.45,33.68-36.51V204.24Zm47,22.36c-9.62,0-18.12,5.09-21.51,13V228h-5.66v62.27h5.66V256.6c0-15.29,8.49-25.19,21.51-25.19,17,0,17,14.71,17,19.53v39.34h5.66V252.07C404.38,245,404.38,226.6,382,226.6ZM418.25,228v62.27h5.66V228h-5.66Zm0-19v8.49h5.66v-8.49h-5.66Zm60.85,19s-19.81,53.49-20.38,55.47c-.85-2-21.79-55.47-21.79-55.47h-6.51l25.19,62.27h6.22L485.32,228Zm36.79-1.41a25.2,25.2,0,0,0-18.4,7.35c-5.94,6.23-9.34,15.57-9.34,26.33,0,9.9,2.83,18.39,8.5,24.05,4.81,4.82,11.32,7.36,19,7.36,15,0,24.62-7.92,26.89-22.64v-.57h-5.66v.57c-2,11-10.19,17.83-21.51,17.83a19.84,19.84,0,0,1-14.72-5.94c-4.53-4.81-7.36-12.17-7.36-20.38h49.53v-2.83c0-9.62-2.83-17.83-8.21-23.21-4.24-5.38-10.75-7.92-18.68-7.92Zm0,5.09c13.87,0,21.51,11.89,21.79,23.77H494.1c.85-11.88,8.77-23.77,21.79-23.77Zm43,8.77V228h-5.66v62.27h5.66v-34c.57-9.34,2.55-12.73,6.79-17.26,6.51-6.51,14.16-5.94,16.42-5.94h.57v-5.67h-.57c-10.19-.28-19.81,5.38-23.21,13Zm53.21,15.29-2-.29c-9.34-2-18.11-4-18.11-12.45,0-8.21,8.77-11.32,17-11.32,6.51,0,17.55,2,17.55,15v.57h5.66v-.57c0-13-8.21-20.09-23.21-20.09-5.38,0-22.64,1.13-22.64,16.13,0,13.58,12.45,16.13,21.51,17.83l1.69.28c9.63,2,19,3.68,19,13.3,0,11.33-13.31,12.46-19,12.46-11.32,0-19-6.79-19.81-17.27v-.56H584.1v.56c.28,13.87,10.19,22.36,25.19,22.36,5.66,0,24.34-1.13,24.34-17.55.57-13-9.34-16.13-21.51-18.39ZM645.8,228v62.27h5.38V228H645.8Zm92.55,0-20.66,54.91c-.85-2.27-22.36-54.91-22.36-54.91H675.24v-19h-5.66v19H658.26v5.1h11.32v43.3c0,4.81,1.13,8.21,3.68,10.75,3.67,3.68,9.9,3.68,14.71,3.4h.57v-5.09H688c-5.09,0-8.49-.29-10.47-2-1.7-1.41-2.26-4-2.26-7.92V233.39H690.8c.29.56,23.49,56,23.78,56.32-2.83,7.93-4.53,12.45-6.23,14.15-2.83,2.83-5.66,3.68-12.45,3.68h-.57v5.1h.57c6.79,0,11.32-.29,14.72-2.83,2.54-2,4.52-6.51,7.35-12.74l26.61-68.49Zm-92.55-19v8.49h5.38v-8.49H645.8Z"/><path d="M568.66,194.87c-50.66-1.17-93.17-39.6-92-93.75,1.16-41.93,34.94-90.26,97.24-88.51,43.09.58,91.42,33.19,89.68,92.58C662.41,165.17,611.75,196.61,568.66,194.87Zm1.75-170.62c-38.43,0-65.8,28.53-65.8,75.7,0,57.07,33.77,82.69,65.8,82.69,38.43,0,64.05-29.7,64.05-76.87C635.63,56.28,609.42,24.25,570.41,24.25Zm740.68-6.4V15.52h-50.66v2.33c9.9.58,12.82,2.91,12.82,16.88V96.46h-90.84V34.73c0-14,2.91-16.3,12.81-16.88V15.52h-50.08v2.33c9.9.58,12.81,2.91,12.81,16.88V173.32c0,14-2.91,16.31-12.81,16.89v2.33h50.66v-2.33c-9.9-.58-12.81-2.91-12.81-16.89V106.94h90.26v66.38c0,14-2.92,16.31-12.82,16.89v2.33h50.66v-2.33c-9.89-.58-12.81-2.91-12.81-16.89V34.73C1298.28,20.76,1301.2,18.43,1311.09,17.85ZM677,15.52v2.33c9.9.58,12.23,1.74,12.23,11.64V172.74c0,14-2.91,16.3-12.81,16.89V192h38.43v-2.32c-9.9-.59-12.81-2.92-12.81-16.89V44.63c0,2.33,98.41,122.29,120,148.49H826v-163C826,19.59,829,19,838.27,18.43V15.52H801v2.33c9.9.58,12.23,1.74,12.23,11.64V141.88L710.74,15.52Zm248.64,0h-3.49c-8.74,21.54-50.66,119.37-64.64,153.14-2.33,5.83-6.4,15.14-9.31,18.64a9.22,9.22,0,0,1-7,2.91v2.33H875v-2.33c-2.91,0-8.73,0-8.73-5.24a17,17,0,0,1,1.16-5.24c1.17-2.92,7.57-20.38,16.31-39.6h67.54c6.41,16.3,12.81,30.28,15.73,36.68.58,1.75,2.32,6.41,2.32,8.16,0,4.66-4.07,5.24-9.31,5.24v2.33h47.16v-2.33c-5.82-.58-7.57-1.75-11.64-11.65l-69.88-163ZM887.76,129.07c11.65-27.95,29.12-72.79,29.12-72.79s15.72,40.18,29.69,72.79ZM270.52,15.52v2.33c5.24.58,8.74.58,10.48,2.91a4.41,4.41,0,0,1,1.17,2.91,5.26,5.26,0,0,1,.58,2.91V173.32c0,14-2.91,16.31-12.81,16.89v2.33h37.85v-2.33c-9.9-.58-12.81-2.91-12.81-16.89V50.46c.58-2.33,0-7,0-7l2.33,7L358.45,192h3.49L424.25,46.38,426,40.56a32.28,32.28,0,0,0-.58,5.24V173.32c0,14-2.92,16.31-12.82,16.89v2.33h51.25v-2.33C454,189.63,451,187.3,451,173.32V30.08C451,19.59,454,19,463.27,18.43V15.52h-39.6L367.19,148.86,310.12,15.52Zm744.77,165.37c11.64,7,29.69,14.56,48.33,14.56h1.16c27.37-.58,57.07-21,57.07-53,0-34.94-24.46-43.09-49.5-55.9-25-12.23-35.52-18.64-35.52-34.94,0-11.06,7-27.37,29.12-27.37a38.43,38.43,0,0,1,18.63,4.66c18.05,9.9,18.63,23.87,21,33.19h2.33l-1.75-39.59c-11.64-4.66-20.38-7-26.78-7.57a69.76,69.76,0,0,0-10.48-.59c-24.46,0-54.16,14.56-54.16,46,0,21.55,12.81,34.94,37.85,47.17,25,12.81,44.26,17.47,44.26,42.51,0,12.81-7,34.94-35.52,34.94a42.36,42.36,0,0,1-27.37-9.9c-16.89-15.72-16.3-28.53-17.47-33.19h-2.33l1.17,39"/></g></g></svg>