<svg xmlns="http://www.w3.org/2000/svg" xmlns:xlink="http://www.w3.org/1999/xlink" width="113.414" height="114.486" viewBox="0 0 113.414 114.486">
  <defs>
    <linearGradient id="linear-gradient" x1="0.5" x2="0.5" y2="1" gradientUnits="objectBoundingBox">
      <stop offset="0" stop-color="#fc3e99"/>
      <stop offset="1" stop-color="#470590"/>
    </linearGradient>
  </defs>
  <g id="Group_2148" data-name="Group 2148" transform="translate(-598 -912.833)">
    <g id="Layer_2" data-name="Layer 2" transform="translate(598 912.833)">
      <g id="Layer_1" data-name="Layer 1" transform="translate(0 0)">
        <path id="Path_2838" data-name="Path 2838" d="M99.4,79.3c.342-1.185.632-2.4,1.04-3.568a115.26,115.26,0,0,0,5.188-19.118c1.145-6.952,1.488-13.864-1.066-20.645a32.916,32.916,0,0,0-6.583-10.349A76.826,76.826,0,0,0,81.083,11.135,56.01,56.01,0,0,0,68.14,5.013a25.253,25.253,0,0,0-17.3.816,56.918,56.918,0,0,1-16.155,3.95c-4.766.448-9.546.685-14.312,1.027l-1.606.118c6.28,7.426,12.1,14.8,19.394,20.842,0,.132-.145.25-.224.382-.408-.092-.816-.145-1.211-.276a26.254,26.254,0,0,1-7.716-4.766A73.271,73.271,0,0,1,17.3,14.559c-.83-1.066-1.554-2.225-2.462-3.542-1.4,3.594-.553,6.926,0,10.257l-.355.184a7.9,7.9,0,0,1-1.066-1.317,12.706,12.706,0,0,1-.355-11.428A5.9,5.9,0,0,1,14.158,7.4c.566-.592,1.08-.658,1.606.145a4.766,4.766,0,0,0,5.016,2.067,120.393,120.393,0,0,0,31.994-7.9c5.346-2.344,10.731-2.014,16.168-.5A57.656,57.656,0,0,1,87.956,10.9a70.6,70.6,0,0,1,16.168,16.353A32.231,32.231,0,0,1,109.47,48a63.91,63.91,0,0,1-3.95,18.617C104.111,70.4,102.5,74.1,100.938,77.81A10.388,10.388,0,0,1,99.819,79.5l-.448-.2" transform="translate(3.823 -0.011)" fill="#222"/>
        <path id="Path_2839" data-name="Path 2839" d="M89.385,63.066c-.487.408-.948.856-1.461,1.211-5,3.318-9.98,6.662-15.01,9.941a5.727,5.727,0,0,0-2.831,4.832A22.383,22.383,0,0,1,65.659,91.5,8.756,8.756,0,0,1,56.074,95.1a25.977,25.977,0,0,1-15.8-9.927,13.338,13.338,0,0,1-2.844-9.164,5.056,5.056,0,0,0-.145-1.725,2.436,2.436,0,0,0-4.358-1.04,8.887,8.887,0,0,0-1.791,2.962,10.349,10.349,0,0,1-10.783,7.228c-6.122-.487-11.731-2.278-15.642-7.4A9.4,9.4,0,0,1,3.395,65.58c1.791-3.594,4.858-5.135,8.821-5.267,4.556-.2,8.558,1.5,12.561,3.3,1.093.487,2.159,1.014,3.226,1.527a1.8,1.8,0,0,1-.092.382l-2.33-.355c-3.41-.513-6.82-1.172-10.243-1.514a10.033,10.033,0,0,0-6.28,1.317A5.267,5.267,0,0,0,7.463,72.6a17.222,17.222,0,0,0,16.3,6.768,5.793,5.793,0,0,0,4.068-3.081c.632-.974,1.317-1.962,1.909-2.923,2.12-3.213,4.766-3.515,7.571-.856.145.145.3.263.658.579.118-.237.2-.421.3-.606a10.717,10.717,0,0,1,9.006-5.03A39.723,39.723,0,0,1,63.894,70.4c.092,0,.171.158.5.474a15.02,15.02,0,0,1-1.554,0c-2.976-.395-5.938-1.027-8.927-1.132a34.482,34.482,0,0,0-7.795.685c-3.515.685-5.543,2.8-5.622,5.78a9.217,9.217,0,0,0,.922,4.187,20.237,20.237,0,0,0,11.85,9.927,15.59,15.59,0,0,0,5.438,1.185c2.949,0,4.569-2.3,5.806-4.714a27.821,27.821,0,0,0,2.778-9.941,4.687,4.687,0,0,1,2.752-3.95c5.78-3.068,11.494-6.254,17.235-9.374.579-.3,1.2-.513,1.791-.777l.237.421" transform="translate(0.815 19.079)" fill="url(#linear-gradient)"/>
        <path id="Path_2840" data-name="Path 2840" d="M5.834,10.792A29.137,29.137,0,0,0,8.573,22.537c2.212,4.885,4.608,9.7,6.873,14.549a6.228,6.228,0,0,1,.579,2.041,38.657,38.657,0,0,1-7.044-7.176c-2.12-2.633-3.95-5.411-6.162-8.124.764,2.5,1.527,4.99,2.317,7.479.25.79.592,1.554.816,2.357a5.6,5.6,0,0,1,.118,1.251l-.355.118c-.448-.75-.922-1.488-1.317-2.251A33.061,33.061,0,0,1,.015,19.324a12.85,12.85,0,0,1,1.093-6.583c.118-.237.29-.461.645-1.04l1.317,5.556h.342C1.911,12.306,1.476,7.435,4.728,2.55c1.04,1.514,2,2.883,2.949,4.253,3.95,5.675,7.637,11.534,11.85,16.958,2.752,3.515,6.307,6.386,9.532,9.506a3.266,3.266,0,0,1,.369.474c.25.434.711.737.606,1.106a22.387,22.387,0,0,1-2.107-1.053,41.421,41.421,0,0,1-11.85-9.7c-3.278-3.95-6.32-8.15-9.467-12.245-.276-.355-.566-.7-.856-1.053" transform="translate(0.047 0.793)" fill="#222"/>
        <path id="Path_2841" data-name="Path 2841" d="M10.614,55.887a9.124,9.124,0,0,1,0-5.806,13.719,13.719,0,0,1,2.33-4.582c1.317-1.619,3.5-1.593,5.267-.29a18.262,18.262,0,0,1,5.464,6.215c2.041,3.673,4.266,7.242,6.4,10.849.8,1.317,1.593,2.725,2.317,4.121a3.226,3.226,0,0,1,.105,1.317c-.382-.158-.9-.224-1.119-.513-1.7-2.3-3.331-4.674-5.016-6.991-2.633-3.621-5.267-7.242-8.045-10.8-.777-1.014-1.672-2.383-3.173-2.054s-1.949,1.83-2.4,3.041c-.658,1.817-1.159,3.687-1.725,5.53h-.408" transform="translate(3.273 13.999)" fill="url(#linear-gradient)"/>
        <path id="Path_2842" data-name="Path 2842" d="M34.65,64.206c6.465-2.107,13.074-3.779,19.934-3.252,7.136.553,10.191,1.619,11.468,3.186-3.608-.355-7.018-.882-10.441-.935a105.33,105.33,0,0,0-10.533.579c-3.45.29-6.873.724-10.309,1.093l-.079-.671" transform="translate(11.033 19.255)" fill="url(#linear-gradient)"/>
        <path id="Path_2843" data-name="Path 2843" d="M6.048,59.562c-.342-1.317-.764-2.633-1.027-3.871a75.272,75.272,0,0,1-.79-20.777c.092-1.2.277-2.4.461-3.581,0-.276.316-.513.474-.764.158.29.448.566.474.856q.276,5.372.5,10.717.329,7.808.645,15.6a10.988,10.988,0,0,1-.092,1.738l-.645.079" transform="translate(1.281 9.666)" fill="#222"/>
      </g>
    </g>
  </g>
</svg>
