<svg xmlns="http://www.w3.org/2000/svg" viewBox="0 0 885.83 307.34"><defs><style>.cls-1{fill:#e42a20;}</style></defs><g id="Layer_2" data-name="Layer 2"><g id="svg5704"><g id="g5110"><g id="g5116"><path id="path5118" d="M852.89,191.45V183H828V17.5c38.1-1.9,44.61,6.25,49.5,40.83h8.37l-3-47.61H738.15L735.2,58.33h8.59c4.92-34.58,11.35-42.73,49.52-40.83V183H768.36v8.49h84.53"/></g><g id="g5120"><path id="path5122" d="M631.39,19.25V10.72H564.73L525.55,134.33,487.72,10.72H421.3v8.53h23.36V183l-25.23,0c-23.44.57-23.8-19.41-23.7-23.54.32-44.06-9.51-60.09-51.73-66.61V92.2c25.18-2.67,57.37-9.83,57.37-40.36,0-37.58-35.08-41.12-64.68-41.12H249.56v8.53h23.33V182.94H249.56v8.51h81.29v-8.51H307.52V96.64c15-.59,31.88,3.24,39.51,9.79,7,6,10.84,24.53,10.84,46.92,0,27.64,14.26,38.1,41.63,38.1h78.34V183H455V22.05h.56l53.8,169.4h9.14l54.15-169.4h.81V183H550.21v8.48h81.18V183H608.1V19.25Zm-323.87,69V19.25h23.54c24.1,0,33,6.06,33,36.45,0,24.24-10,32.5-34.35,32.5H307.52"/></g><g id="g5124"><path id="path5126" class="cls-1" d="M105.72,0h-27V21.92H33.8V67.64H0v67.13H33.8v45.72H78.73v21.86h23.79c55.58,0,104.62-44.87,104.62-100.92C207.14,45.76,161.39,0,105.72,0"/></g><g id="g5128"><path id="path5130" d="M272.89,246.13a2,2,0,0,0-2.2-2.21h-4.32v-8.63H276.5c4.52,0,6.43,1.91,6.43,6.43V281c0,10.63,6.71,17,16.95,17s17-6.34,17-17.07V241.72c0-4.52,2-6.43,6.51-6.43h10v8.63h-4.32a2,2,0,0,0-2.19,2.21v35.22c0,15.45-10.75,26-26.91,26s-27.09-10.54-27.09-26Z"/></g><g id="g5132"><path id="path5134" d="M340.19,297.51h4.31a2,2,0,0,0,2.21-2.21v-60h9.13l31.52,44.86c2.6,3.81,5.92,9.63,5.92,9.63h.19s-.7-5.62-.7-9.63V241.72c0-4.52,1.91-6.43,6.53-6.43h10v8.63H405a2,2,0,0,0-2.21,2.21v60h-9l-31.61-44.85c-2.61-3.83-5.82-9.64-5.82-9.64h-.2s.6,5.72.6,9.64v38.42c0,4.52-1.92,6.43-6.43,6.43H340.19Z"/></g><g id="g5136"><path id="path5138" d="M420.22,297.51h6.93V243.92h-6.93v-8.63h23.39v8.63h-6.93v53.59h6.93v8.63H420.22Z"/></g><g id="g5140"><path id="path5142" d="M454.54,246.13c-.6-1.81-1.61-2.21-3.3-2.21h-1.4v-8.63h5.61c5,0,6.73,1.11,8.33,5.82l15.55,43.66c1.31,3.81,2.72,9.72,2.72,9.72h.2a89.64,89.64,0,0,1,2.71-9.72l15.55-43.66c1.7-4.71,3.3-5.82,8.32-5.82h5.62v8.63h-1.4c-1.82,0-2.71.4-3.31,2.21l-22.28,60H476.82Z"/></g><g id="g5144"><path id="path5146" d="M526.8,243.92h-6.51v-8.63h41.65c4.51,0,6.41,1.91,6.41,6.42v8.93h-9.14v-4.52a2,2,0,0,0-2.2-2.2H536.85V266.1h24.77v8.62H536.85V295.3a2,2,0,0,0,2.2,2.2h20.67a2,2,0,0,0,2.22-2.2v-4.52h9.22v8.93c0,4.52-1.9,6.42-6.42,6.42H533.23c-4.52,0-6.43-1.9-6.43-6.42Z"/></g><g id="g5148"><path id="path5150" d="M608.33,269.31c7.62,0,12.13-4.92,12.13-12.85s-4.51-12.54-11.94-12.54H595.28v25.39Zm-23.09-25.39h-6.52v-8.63h30.9c12.45,0,21.18,7.83,21.18,20.78,0,11.83-7.72,17.66-12.75,18.75v.2a7.6,7.6,0,0,1,3,3.22l8.54,16.95c1,2.12,2.61,2.32,5,2.32h1.32v8.62H631c-5.52,0-7.53-.69-9.82-5.31l-9.64-19.06c-1.81-3.32-3.12-3.82-7-3.82h-9.23v28.19h-10Z"/></g><g id="g5152"><path id="path5154" d="M648.76,289.68s7.23,8.53,17.76,8.53c6.63,0,12.16-4,12.16-10.54,0-14.85-34.23-12.55-34.23-34.62,0-10.64,9.33-19,22.68-19,7.53,0,20.16,3.42,20.16,13V253h-9.22v-3.32c0-3.72-5.32-6.43-10.94-6.43-7.63,0-12.44,4.22-12.44,9.54,0,14.35,34.12,11.14,34.12,34.41,0,10.85-8.44,20.18-22.48,20.18a31.64,31.64,0,0,1-23.48-10.54Z"/></g><g id="g5156"><path id="path5158" d="M699.33,297.51h6.93V243.92h-6.93v-8.63h23.39v8.63h-6.93v53.59h6.93v8.63H699.33Z"/></g><g id="g5160"><path id="path5162" d="M754.64,243.92H740.38a2,2,0,0,0-2.2,2.2v4.52h-8.93v-9.33c0-4.51,1.5-6,6-6h48.78c4.5,0,6,1.51,6,6v9.33h-8.93v-4.52a2,2,0,0,0-2.21-2.2H764.67v62.21h-10Z"/></g><g id="g5164"><path id="path5166" d="M818.67,275.23l-18-28.8c-1.3-2.12-2.21-2.51-4.33-2.51h-2v-8.63H799c4.82,0,6.72.7,9.54,5.42l10.74,17.87c2.32,3.9,4.32,7.92,4.32,7.92h.2s1.9-4,4.31-7.92l10.65-17.87c2.79-4.72,4.81-5.42,9.52-5.42h4.62v8.63H851c-2.1,0-3.1.39-4.4,2.51l-17.88,28.8v30.91h-10Z"/></g></g><g id="g5104"><path id="path5106" d="M700.85,19.41h23.34v-8.6H642.85v8.6h23.47V183H642.85v8.53h81.34V183H700.85Z"/></g></g></g></svg>